<?xml version="1.0" encoding="UTF-8" standalone="no"?>
<svg
   xmlns:dc="http://purl.org/dc/elements/1.1/"
   xmlns:cc="http://creativecommons.org/ns#"
   xmlns:rdf="http://www.w3.org/1999/02/22-rdf-syntax-ns#"
   xmlns:svg="http://www.w3.org/2000/svg"
   xmlns="http://www.w3.org/2000/svg"
   viewBox="0 0 578.26801 578.27197"
   height="578.27197"
   width="578.26801"
   xml:space="preserve"
   id="svg2"
   version="1.1"><metadata
     id="metadata8"><rdf:RDF><cc:Work
         rdf:about=""><dc:format>image/svg+xml</dc:format><dc:type
           rdf:resource="http://purl.org/dc/dcmitype/StillImage" /></cc:Work></rdf:RDF></metadata><defs
     id="defs6"><clipPath
       id="clipPath18"
       clipPathUnits="userSpaceOnUse"><path
         id="path16"
         d="M 0,433.704 H 433.701 V 0 H 0 Z" /></clipPath><linearGradient
       id="linearGradient52"
       spreadMethod="pad"
       gradientTransform="matrix(0,-465.76694,-465.76694,0,216.85039,436.21533)"
       gradientUnits="userSpaceOnUse"
       y2="0"
       x2="1"
       y1="0"
       x1="0"><stop
         id="stop48"
         offset="0"
         style="stop-opacity:1;stop-color:#f39200" /><stop
         id="stop50"
         offset="1"
         style="stop-opacity:1;stop-color:#e6342a" /></linearGradient><linearGradient
       id="linearGradient72"
       spreadMethod="pad"
       gradientTransform="matrix(0,-465.76694,-465.76694,0,216.84988,436.21533)"
       gradientUnits="userSpaceOnUse"
       y2="0"
       x2="1"
       y1="0"
       x1="0"><stop
         id="stop68"
         offset="0"
         style="stop-opacity:1;stop-color:#f39200" /><stop
         id="stop70"
         offset="1"
         style="stop-opacity:1;stop-color:#e6342a" /></linearGradient><clipPath
       id="clipPath82"
       clipPathUnits="userSpaceOnUse"><path
         id="path80"
         d="M 0,433.704 H 433.701 V 0 H 0 Z" /></clipPath></defs><g
     transform="matrix(1.3333333,0,0,-1.3333333,0,578.272)"
     id="g10"><g
       id="g12"><g
         clip-path="url(#clipPath18)"
         id="g14"><g
           transform="translate(252.4759,194.7891)"
           id="g20"><path
             id="path22"
             style="fill:#FFFFFF;fill-opacity:1;fill-rule:nonzero;stroke:none"
             d="M 0,0 C 0.025,0.483 -0.074,-1.448 0,0 3.337,0 6.759,1.291 10.082,1.503 12.335,1.647 13.809,3.05 13.965,5.469 14.139,8.138 12.711,9.7 10.254,10.21 8.825,10.507 7.296,10.289 5.818,10.396 -2.603,11.008 -10.569,7.729 -18.778,7.329 -31.917,6.689 -45.11,7.173 -58.281,7.143 c -2.236,-0.005 -4.309,0.378 -6.475,1.069 -7.155,2.279 -14.601,2.28 -22.02,2.102 -2.754,-0.065 -4.712,-1.6 -4.749,-4.421 -0.037,-2.811 1.793,-4.342 4.619,-4.503 1.48,-0.085 3.005,0.137 4.443,-0.132 9.463,-1.777 18.191,2.957 27.352,3.1 C -36.664,4.646 -18.121,5.827 0,0 m -78.566,25.198 c 26.853,1.397 52.809,1.203 79.62,0.128 -3.408,5.971 -6.46,11.2 -9.379,16.503 -0.989,1.796 -2.462,1.956 -4.199,1.954 -17.413,-0.018 -34.826,-0.03 -52.237,0.014 -1.994,0.005 -3.48,-0.338 -4.547,-2.309 -2.805,-5.181 -5.809,-10.255 -9.258,-16.29 M -89.33,22.062 c -3.451,0.848 -6.54,1.733 -6.028,5.582 0.582,4.381 4.248,4.496 7.305,3.849 5.463,-1.155 8.262,1.457 10.85,5.703 3.076,5.045 6.69,9.762 10.121,14.585 0.403,0.569 1.062,1.125 1.711,1.317 2.199,0.645 4.966,1.42 3.988,4.12 -0.799,2.206 -3.141,4.171 -5.892,4.34 -3.702,0.227 -7.427,0.083 -11.142,0.069 -4.801,-0.017 -9.688,-0.647 -13.389,3.689 -1.115,1.308 -3.165,0.784 -4.814,0.802 -4.329,0.047 -8.659,0.015 -14.394,0.015 18.913,7.36 37.121,7.091 55.445,5.52 1.701,-0.146 3.364,-0.728 3.616,-2.805 0.181,-1.488 0.259,-3.117 -1.536,-3.763 -3.532,-1.271 -1.501,-4.801 -2.902,-7.167 -2.354,-3.98 3.013,-3.229 4.244,-4.978 1.392,-1.98 5.545,-1.647 4.561,-5.744 -0.464,-1.926 1.803,-0.95 2.718,-0.958 10.772,-0.092 21.55,-0.229 32.316,0.027 4.299,0.102 7.605,-0.671 9.538,-4.867 0.612,-1.326 1.826,-2.367 2.497,-3.675 2.476,-4.824 5.78,-7.622 11.708,-6.203 3.077,0.736 6.325,-0.031 6.82,-3.832 0.482,-3.698 -2.51,-4.85 -6.448,-5.619 8.312,-4.983 10.199,-12.121 9.006,-20.476 -0.078,-0.547 0.018,-1.116 -0.025,-1.67 -0.413,-5.298 2.357,-12.366 -1.195,-15.403 -3.053,-2.61 -9.901,-0.889 -15.071,-0.895 -32.132,-0.035 -64.267,0.081 -96.399,-0.126 -4.678,-0.03 -6.092,1.269 -5.8,5.883 0.338,5.346 0.095,10.725 -0.446,16.111 -0.716,7.12 3.117,12.319 9.037,16.569" /></g><g
           transform="translate(233.3138,272.2481)"
           id="g24"><path
             id="path26"
             style="fill:#FFFFFF;fill-opacity:1;fill-rule:nonzero;stroke:none"
             d="m 0,0 c 1.562,-6.305 4.633,-9.22 10.092,-10.733 -5.383,-1.44 -8.585,-4.289 -9.937,-10.336 -1.439,5.759 -4.248,8.999 -10.371,10.193 C -4.652,-9.201 -1.14,-6.605 0,0" /></g><g
           transform="translate(289.2786,189.2071)"
           id="g28"><path
             id="path30"
             style="fill:#FFFFFF;fill-opacity:1;fill-rule:nonzero;stroke:none"
             d="m 0,0 c -1.418,6.257 -4.5,9.342 -10.096,10.793 5.563,1.567 8.892,4.348 9.783,10.945 C 1.223,15.541 3.979,12.198 9.837,11.007 4.559,9.18 1.082,6.472 0,0" /></g><path
           id="path32"
           style="fill:#FFFFFF;fill-opacity:1;fill-rule:nonzero;stroke:none"
           d="m 178.824,167.392 h -22.291 v 11.448 h 22.291 z" /><path
           id="path34"
           style="fill:#FFFFFF;fill-opacity:1;fill-rule:nonzero;stroke:none"
           d="m 271.565,167.392 h -22.29 v 11.448 h 22.29 z" /></g></g><g
       id="g36"><g
         id="g38"><g
           id="g44"><g
             id="g46"><path
               id="path54"
               style="fill:url(#linearGradient52);stroke:none"
               d="M 4.775,216.852 C 4.775,99.913 99.912,4.776 216.85,4.776 v 0 c 116.939,0 212.076,95.137 212.076,212.076 v 0 c 0,116.939 -95.137,212.075 -212.076,212.075 v 0 C 99.912,428.927 4.775,333.791 4.775,216.852 m 14.672,0 c 0,108.848 88.556,197.403 197.403,197.403 v 0 c 108.847,0 197.403,-88.555 197.403,-197.403 v 0 C 414.253,108.005 325.697,19.449 216.85,19.449 v 0 c -108.847,0 -197.403,88.556 -197.403,197.403" /></g></g></g></g><g
       id="g56"><g
         id="g58"><g
           id="g64"><g
             id="g66"><path
               id="path74"
               style="fill:url(#linearGradient72);stroke:none"
               d="M 33.719,216.852 C 33.719,115.874 115.87,33.72 216.85,33.72 v 0 c 100.979,0 183.132,82.154 183.132,183.132 v 0 c 0,100.979 -82.153,183.131 -183.132,183.131 v 0 c -100.98,0 -183.131,-82.152 -183.131,-183.131 m 69.172,0 c 0,62.837 51.122,113.958 113.959,113.958 v 0 c 62.837,0 113.959,-51.121 113.959,-113.958 v 0 c 0,-62.836 -51.122,-113.959 -113.959,-113.959 v 0 c -62.837,0 -113.959,51.123 -113.959,113.959" /></g></g></g></g><g
       id="g76"><g
         clip-path="url(#clipPath82)"
         id="g78"><g
           transform="translate(82.7547,248.753)"
           id="g84"><path
             id="path86"
             style="fill:#ffffff;fill-opacity:1;fill-rule:nonzero;stroke:none"
             d="m 0,0 c 1.678,6.338 0.053,10 -5.904,11.576 -6.038,1.599 -9.244,-0.876 -10.898,-7.13 l -0.373,-1.404 16.804,-4.446 z m -26.153,-3.365 1.937,7.316 c 1.498,5.658 2.788,10.186 6.653,13.441 3.692,3.119 8.445,4.048 13.891,2.608 C 1.729,18.569 5.4,15.412 7.109,10.862 8.788,6.366 7.844,2.113 6.503,-2.951 l -2.241,-8.465 z" /></g><g
           transform="translate(93.1736,287.7774)"
           id="g88"><path
             id="path90"
             style="fill:#ffffff;fill-opacity:1;fill-rule:nonzero;stroke:none"
             d="m 0,0 -10.677,2.063 c -0.491,0.113 -1.9,0.467 -4.227,1.061 1.787,-1.605 2.843,-2.619 3.208,-2.964 l 7.67,-7.693 z m -21.96,0.757 5.064,9.474 L 15.993,4.979 11.967,-2.553 6.25,-1.294 0.5,-12.049 4.7,-16.143 0.676,-23.676 Z" /></g><g
           transform="translate(86.7747,314.9493)"
           id="g92"><path
             id="path94"
             style="fill:#ffffff;fill-opacity:1;fill-rule:nonzero;stroke:none"
             d="M 0,0 5.584,6.104 25.555,3.935 c 0.499,-0.041 2.547,-0.541 6.022,-1.634 -2.026,1.437 -3.67,2.702 -4.905,3.832 L 15.213,16.622 20.769,22.693 43.982,1.447 38.424,-4.622 18.423,-2.424 c -0.499,0.039 -2.513,0.512 -5.989,1.603 2.026,-1.435 3.67,-2.704 4.904,-3.832 l 11.459,-10.489 -5.586,-6.102 z" /></g><g
           transform="translate(116.8987,344.6636)"
           id="g96"><path
             id="path98"
             style="fill:#ffffff;fill-opacity:1;fill-rule:nonzero;stroke:none"
             d="m 0,0 6.968,5.161 18.73,-25.293 -6.968,-5.161 z" /></g><g
           transform="translate(132.427,355.6724)"
           id="g100"><path
             id="path102"
             style="fill:#ffffff;fill-opacity:1;fill-rule:nonzero;stroke:none"
             d="m 0,0 17.009,9.093 3.259,-6.096 -9.632,-5.148 2.575,-4.815 9.087,4.858 3.175,-5.941 -9.084,-4.859 2.509,-4.696 9.631,5.146 3.323,-6.21 -17.009,-9.093 z" /></g><g
           transform="translate(158.6575,368.5235)"
           id="g104"><path
             id="path106"
             style="fill:#ffffff;fill-opacity:1;fill-rule:nonzero;stroke:none"
             d="m 0,0 8.164,2.657 7.467,-22.945 10.133,3.298 2.276,-6.992 -18.296,-5.953 z" /></g><g
           transform="translate(197.5257,352.0699)"
           id="g108"><path
             id="path110"
             style="fill:#ffffff;fill-opacity:1;fill-rule:nonzero;stroke:none"
             d="M 0,0 C 2.354,0.325 3.689,1.932 3.436,3.762 3.094,6.248 1.29,6.755 -2.366,7.181 c -5.83,0.708 -8.888,2.595 -9.561,7.48 -0.801,5.797 2.835,10.697 9.372,11.598 3.489,0.481 6.665,-0.012 9.628,-1.515 L 5.255,18.273 c -2.191,1.386 -4.397,1.927 -6.315,1.661 -2.092,-0.287 -3.287,-1.609 -3.083,-3.091 0.308,-2.223 2.51,-2.407 5.446,-2.758 5.739,-0.718 9.074,-2.348 9.868,-8.1 0.894,-6.497 -3.106,-11.625 -10.43,-12.634 -4.405,-0.608 -7.909,0.332 -11.704,3.05 L -8,3.25 C -5.123,0.761 -2.484,-0.342 0,0" /></g><g
           transform="translate(239.1311,364.8062)"
           id="g112"><path
             id="path114"
             style="fill:#ffffff;fill-opacity:1;fill-rule:nonzero;stroke:none"
             d="M 0,0 C 3.563,-0.579 5.558,-0.368 5.976,2.194 6.428,4.974 4.579,5.674 1.148,6.235 L -0.675,6.53 -1.692,0.276 Z m -0.74,-12.497 c 3.604,-0.587 5.629,-0.203 6.047,2.36 0.48,2.954 -1.165,3.802 -4.813,4.395 l -3.085,0.502 -1.103,-6.776 z m -6.792,26.474 9.424,-1.533 c 3.822,-0.62 6.812,-1.152 8.988,-2.577 2.661,-1.726 3.8,-4.32 3.298,-7.402 -0.579,-3.562 -2.583,-5.2 -6.714,-5.642 4.374,-1.069 6.508,-4.401 5.758,-9.007 -0.538,-3.299 -2.395,-5.674 -5.228,-6.638 -3.019,-1.026 -6.726,-0.51 -11.807,0.317 l -8.774,1.427 z" /></g><g
           transform="translate(264.8724,371.8624)"
           id="g116"><path
             id="path118"
             style="fill:#ffffff;fill-opacity:1;fill-rule:nonzero;stroke:none"
             d="m 0,0 8.211,-2.786 -10.108,-29.796 -8.21,2.784 z" /></g><g
           transform="translate(282.7532,365.3179)"
           id="g120"><path
             id="path122"
             style="fill:#ffffff;fill-opacity:1;fill-rule:nonzero;stroke:none"
             d="m 0,0 7.654,-3.885 -10.921,-21.506 9.498,-4.823 -3.329,-6.552 -17.149,8.706 z" /></g><g
           transform="translate(301.8128,356.0206)"
           id="g124"><path
             id="path126"
             style="fill:#ffffff;fill-opacity:1;fill-rule:nonzero;stroke:none"
             d="M 0,0 7.257,-5.515 1.611,-23.346 c -0.106,-0.361 -0.679,-1.695 -1.715,-4.004 1.947,1.615 3.116,2.499 3.433,2.7 l 15.635,10.237 7.257,-5.515 -29.566,-17.07 -5.189,3.943 z" /></g><g
           transform="translate(343.179,323.17)"
           id="g128"><path
             id="path130"
             style="fill:#ffffff;fill-opacity:1;fill-rule:nonzero;stroke:none"
             d="M 0,0 C 0.852,-1.011 2.368,-1.171 3.345,-0.348 4.356,0.504 4.489,2.055 3.638,3.064 2.814,4.041 1.263,4.174 0.254,3.322 -0.723,2.5 -0.852,1.011 0,0 m -14.532,-17.882 5.88,9.153 c 0.284,0.414 1.135,1.591 2.551,3.532 -2.155,-1.067 -3.487,-1.671 -3.942,-1.882 l -9.991,-4.27 z m 8.991,19.95 2.145,-2.682 0.068,0.055 C -4.395,1.595 -3.731,4.225 -1.812,5.842 0.579,7.856 4.088,7.588 6.131,5.163 8.172,2.739 7.836,-0.827 5.478,-2.813 3.593,-4.401 1.107,-4.593 -1.003,-3.32 l -0.067,-0.057 2.196,-2.469 -16.962,-28.74 -5.502,6.534 3.289,4.845 -7.858,9.329 -5.362,-2.385 -5.503,6.534 z" /></g><g
           transform="translate(346.8538,286.2012)"
           id="g132"><path
             id="path134"
             style="fill:#ffffff;fill-opacity:1;fill-rule:nonzero;stroke:none"
             d="m 0,0 c 1.676,-3.197 3.485,-4.188 5.942,-2.898 2.925,1.53 3.105,3.465 1.45,6.624 L 6.593,5.244 -0.735,1.404 Z M 8.701,15.447 13.117,7.025 C 15.14,3.165 16.654,0.18 16.068,-3.157 15.571,-6.002 13.766,-8.342 10.882,-9.854 6.552,-12.123 2.641,-11.39 -0.343,-7.785 l -7.244,-13.487 -4.497,8.576 7.565,12.116 -10.916,-5.721 -3.74,7.134 z" /></g><g
           transform="translate(349.1517,255.545)"
           id="g136"><path
             id="path138"
             style="fill:#ffffff;fill-opacity:1;fill-rule:nonzero;stroke:none"
             d="m 0,0 c 1.673,-6.346 4.896,-8.729 10.855,-7.156 6.045,1.594 7.612,5.33 5.961,11.59 L 16.446,5.838 -0.37,1.404 Z m 21.091,15.852 1.93,-7.324 c 1.493,-5.662 2.61,-10.239 0.854,-14.982 -1.671,-4.538 -5.347,-7.694 -10.796,-9.132 -5.406,-1.425 -10.159,-0.491 -13.895,2.62 -3.681,3.083 -4.962,7.251 -6.299,12.32 l -2.234,8.47 z" /></g><g
           transform="translate(101.407,132.0186)"
           id="g140"><path
             id="path142"
             style="fill:#ffffff;fill-opacity:1;fill-rule:nonzero;stroke:none"
             d="M 0,0 C 1.822,-0.452 3.256,-0.315 4.139,0.342 5.338,1.238 5.553,2.716 4.579,4.021 3.5,5.468 1.996,5.717 0.618,4.691 0.126,4.323 -0.565,3.259 -0.813,2.194 L -1.275,0.311 Z m -8.033,-1.159 c -2.47,0.516 -4.143,0.477 -5.342,-0.419 -1.448,-1.079 -1.769,-3.077 -0.61,-4.629 0.867,-1.164 2.337,-1.881 4.536,-2.327 z m -2.259,-13.385 c -4.074,0.749 -6.957,2.553 -9.405,5.834 -3.396,4.55 -2.653,9.883 1.335,12.859 3.279,2.447 6.899,2.236 11.989,-0.171 0.641,2.894 1.755,4.934 3.45,6.198 C 0.323,12.597 5.136,11.739 8.216,7.612 11.77,2.85 11.203,-1.691 7.533,-4.428 5.101,-6.245 1.965,-6.387 -2.027,-4.864 l -0.894,-5.28 c 2.067,-0.488 4.1,-0.783 6.124,-0.92 l -1.017,-6.363 c -2.219,0.103 -4.287,0.371 -6.145,0.799 l -1.564,-9.681 -5.686,7.622 z" /></g><g
           transform="translate(124.4808,89.2139)"
           id="g144"><path
             id="path146"
             style="fill:#ffffff;fill-opacity:1;fill-rule:nonzero;stroke:none"
             d="m 0,0 c 1.928,-1.389 4.002,-1.146 5.081,0.354 1.467,2.037 0.511,3.647 -1.843,6.481 -3.734,4.531 -4.649,8.01 -1.768,12.012 3.42,4.751 9.432,5.793 14.791,1.936 2.858,-2.057 4.819,-4.608 5.928,-7.738 L 16.409,9.61 C 15.778,12.126 14.552,14.04 12.98,15.17 11.267,16.404 9.49,16.273 8.614,15.06 7.304,13.235 8.771,11.584 10.657,9.306 14.321,4.824 15.61,1.345 12.216,-3.372 8.384,-8.694 1.949,-9.648 -4.053,-5.329 -7.66,-2.731 -9.551,0.366 -10.428,4.955 l 6.874,2.917 C -3.189,4.083 -2.037,1.465 0,0" /></g><g
           transform="translate(151.4847,101.8624)"
           id="g148"><path
             id="path150"
             style="fill:#ffffff;fill-opacity:1;fill-rule:nonzero;stroke:none"
             d="m 0,0 17.373,-8.364 -2.999,-6.226 -9.833,4.736 -2.371,-4.919 9.281,-4.467 -2.921,-6.07 -9.279,4.469 -2.311,-4.799 9.836,-4.736 -3.056,-6.346 -17.371,8.365 z" /></g><g
           transform="translate(177.5247,75.3711)"
           id="g152"><path
             id="path154"
             style="fill:#ffffff;fill-opacity:1;fill-rule:nonzero;stroke:none"
             d="M 0,0 C 3.486,-0.935 5.439,-0.276 6.16,2.401 7.015,5.591 5.717,7.032 2.274,7.957 L 0.616,8.403 -1.531,0.412 Z M -5.451,16.868 3.732,14.403 C 7.94,13.271 11.158,12.362 13.216,9.666 14.97,7.374 15.461,4.461 14.618,1.314 13.351,-3.403 10.159,-5.782 5.488,-5.53 l 4.999,-14.469 -9.351,2.512 -3.775,13.776 -3.197,-11.903 -7.779,2.09 z" /></g><g
           transform="translate(192.8958,86.0567)"
           id="g156"><path
             id="path158"
             style="fill:#ffffff;fill-opacity:1;fill-rule:nonzero;stroke:none"
             d="m 0,0 9.097,-0.51 5.298,-17.931 c 0.112,-0.359 0.384,-1.786 0.818,-4.277 0.709,2.428 1.183,3.812 1.335,4.156 l 7.226,17.23 9.097,-0.51 -14.945,-30.682 -6.504,0.364 z" /></g><g
           transform="translate(226.5306,85.2198)"
           id="g160"><path
             id="path162"
             style="fill:#ffffff;fill-opacity:1;fill-rule:nonzero;stroke:none"
             d="M 0,0 8.626,0.907 11.919,-30.4 3.293,-31.309 Z" /></g><g
           transform="translate(265.0472,82.0977)"
           id="g164"><path
             id="path166"
             style="fill:#ffffff;fill-opacity:1;fill-rule:nonzero;stroke:none"
             d="m 0,0 c -2.862,1.89 -5.305,2.522 -7.986,1.82 -4.81,-1.262 -7.043,-5.76 -5.693,-10.913 1.229,-4.681 5.371,-7.645 10.225,-6.372 2.682,0.704 4.498,2.454 6.065,5.502 l 2.377,-9.065 c -2.304,-1.97 -4.649,-3.268 -7.373,-3.982 -8.982,-2.356 -17.228,2.716 -19.639,11.911 -2.412,9.196 2.284,17.662 11.266,20.018 2.725,0.715 5.404,0.733 8.379,0.149 z" /></g><g
           transform="translate(264.7151,93.5391)"
           id="g168"><path
             id="path170"
             style="fill:#ffffff;fill-opacity:1;fill-rule:nonzero;stroke:none"
             d="m 0,0 17.44,8.223 2.948,-6.252 -9.874,-4.655 2.327,-4.939 9.318,4.394 2.871,-6.093 -9.317,-4.393 2.272,-4.819 9.874,4.657 3.005,-6.372 -17.442,-8.223 z" /></g><g
           transform="translate(321.3909,106.918)"
           id="g172"><path
             id="path174"
             style="fill:#ffffff;fill-opacity:1;fill-rule:nonzero;stroke:none"
             d="m 0,0 -9.337,5.582 c -0.422,0.272 -1.625,1.085 -3.61,2.439 1.134,-2.12 1.78,-3.434 2.006,-3.882 l 4.587,-9.848 z m -20.389,8.2 7.992,7.179 29.128,-16.149 -6.353,-5.709 -4.945,3.132 -9.073,-8.149 2.555,-5.281 -6.354,-5.709 z" /></g><g
           transform="translate(343.7747,124.4834)"
           id="g176"><path
             id="path178"
             style="fill:#ffffff;fill-opacity:1;fill-rule:nonzero;stroke:none"
             d="M 0,0 C 2.141,2.96 2.704,4.941 0.6,6.462 -1.826,8.215 -3.32,7.124 -5.486,4.129 l -1.83,-2.532 5.564,-4.023 z m -10.839,6.262 c 2.112,2.923 2.82,4.802 0.717,6.323 -2.283,1.649 -3.738,0.313 -5.775,-2.506 L -16.98,8.583 -11.844,4.87 Z m -15.873,-0.473 5.595,7.737 c 2.27,3.139 4.084,5.575 6.332,6.88 2.736,1.608 5.563,1.464 8.096,-0.368 2.924,-2.112 3.488,-4.639 2.034,-8.527 2.915,3.43 6.849,3.843 10.631,1.111 C 8.686,10.663 9.975,7.938 9.569,4.975 9.132,1.815 7.013,-1.268 3.996,-5.441 l -5.208,-7.204 z" /></g><g
           transform="translate(204.3265,205.004)"
           id="g180"><path
             id="path182"
             style="fill:#ffffff;fill-opacity:1;fill-rule:nonzero;stroke:none"
             d="m 0,0 c -0.775,3.421 -2.46,5.106 -5.519,5.9 3.04,0.857 4.861,2.376 5.348,5.984 C 0.668,8.496 2.175,6.668 5.378,6.017 2.492,5.018 0.592,3.538 0,0" /></g><g
           transform="translate(231.8382,183.3604)"
           id="g184"><path
             id="path186"
             style="fill:#ffffff;fill-opacity:1;fill-rule:nonzero;stroke:none"
             d="m 0,0 c -0.775,3.421 -2.46,5.107 -5.519,5.9 3.04,0.857 4.861,2.376 5.348,5.984 C 0.668,8.496 2.175,6.668 5.378,6.017 2.492,5.019 0.592,3.538 0,0" /></g><g
           transform="translate(274.0228,236.5831)"
           id="g188"><path
             id="path190"
             style="fill:#FFFFFF;fill-opacity:1;fill-rule:nonzero;stroke:none"
             d="m 0,0 c -0.775,3.421 -2.459,5.107 -5.519,5.9 3.04,0.857 4.861,2.377 5.348,5.984 C 0.669,8.496 2.175,6.668 5.378,6.017 2.492,5.019 0.592,3.538 0,0" /></g><g
           transform="translate(138.181,174.0176)"
           id="g192"><path
             id="path194"
             style="fill:#FFFFFF;fill-opacity:1;fill-rule:nonzero;stroke:none"
             d="m 0,0 c -0.775,3.421 -2.459,5.106 -5.519,5.9 3.04,0.857 4.861,2.376 5.348,5.984 C 0.668,8.496 2.175,6.668 5.377,6.017 2.492,5.019 0.592,3.538 0,0" /></g></g></g></g></svg>
