<?xml version="1.0" encoding="UTF-8" standalone="no"?>
<svg
   xmlns:dc="http://purl.org/dc/elements/1.1/"
   xmlns:cc="http://creativecommons.org/ns#"
   xmlns:rdf="http://www.w3.org/1999/02/22-rdf-syntax-ns#"
   xmlns:svg="http://www.w3.org/2000/svg"
   xmlns="http://www.w3.org/2000/svg"
   viewBox="0 0 1225.3333 214.66667"
   height="214.66667"
   width="1225.3333"
   xml:space="preserve"
   id="svg2"
   version="1.1"><metadata
     id="metadata8"><rdf:RDF><cc:Work
         rdf:about=""><dc:format>image/svg+xml</dc:format><dc:type
           rdf:resource="http://purl.org/dc/dcmitype/StillImage" /></cc:Work></rdf:RDF></metadata><defs
     id="defs6"><clipPath
       id="clipPath18"
       clipPathUnits="userSpaceOnUse"><path
         id="path16"
         d="M 0,161 H 919 V 0 H 0 Z" /></clipPath><linearGradient
       id="linearGradient52"
       spreadMethod="pad"
       gradientTransform="matrix(0,-157.23312,-157.23312,0,81.393242,153.97673)"
       gradientUnits="userSpaceOnUse"
       y2="0"
       x2="1"
       y1="0"
       x1="0"><stop
         id="stop48"
         offset="0"
         style="stop-opacity:1;stop-color:#f39200" /><stop
         id="stop50"
         offset="1"
         style="stop-opacity:1;stop-color:#e6342a" /></linearGradient><linearGradient
       id="linearGradient72"
       spreadMethod="pad"
       gradientTransform="matrix(0,-157.23312,-157.23312,0,81.393074,153.97673)"
       gradientUnits="userSpaceOnUse"
       y2="0"
       x2="1"
       y1="0"
       x1="0"><stop
         id="stop68"
         offset="0"
         style="stop-opacity:1;stop-color:#f39200" /><stop
         id="stop70"
         offset="1"
         style="stop-opacity:1;stop-color:#e6342a" /></linearGradient><clipPath
       id="clipPath82"
       clipPathUnits="userSpaceOnUse"><path
         id="path80"
         d="M 0,161 H 919 V 0 H 0 Z" /></clipPath></defs><g
     transform="matrix(1.3333333,0,0,-1.3333333,0,214.66667)"
     id="g10"><g
       id="g12"><g
         clip-path="url(#clipPath18)"
         id="g14"><g
           transform="translate(93.4199,72.4766)"
           id="g20"><path
             id="path22"
             style="fill:#1d1d1b;fill-opacity:1;fill-rule:nonzero;stroke:none"
             d="M 0,0 C 0.008,0.163 -0.025,-0.489 0,0 1.126,0 2.281,0.436 3.403,0.507 4.164,0.556 4.661,1.029 4.714,1.846 4.772,2.747 4.291,3.274 3.461,3.446 2.979,3.547 2.463,3.473 1.964,3.509 -0.879,3.716 -3.568,2.608 -6.339,2.474 c -4.435,-0.216 -8.89,-0.053 -13.336,-0.063 -0.755,-0.002 -1.455,0.128 -2.185,0.36 -2.415,0.77 -4.93,0.771 -7.434,0.71 -0.93,-0.021 -1.591,-0.54 -1.603,-1.492 -0.013,-0.949 0.605,-1.466 1.559,-1.52 0.5,-0.029 1.015,0.047 1.5,-0.044 3.194,-0.6 6.141,0.998 9.234,1.046 C -12.377,1.567 -6.118,1.967 0,0 m -26.522,8.506 c 9.065,0.472 17.827,0.406 26.877,0.043 -1.15,2.015 -2.18,3.781 -3.166,5.571 -0.334,0.607 -0.831,0.66 -1.418,0.66 -5.877,-0.007 -11.755,-0.01 -17.633,0.004 -0.673,0.002 -1.175,-0.113 -1.535,-0.778 -0.947,-1.75 -1.961,-3.463 -3.125,-5.5 m -3.634,-1.059 c -1.165,0.286 -2.208,0.585 -2.035,1.885 0.196,1.479 1.434,1.518 2.465,1.299 1.845,-0.39 2.789,0.492 3.664,1.926 1.038,1.703 2.258,3.295 3.416,4.923 0.136,0.192 0.359,0.38 0.578,0.445 0.742,0.218 1.676,0.478 1.346,1.39 -0.27,0.746 -1.06,1.409 -1.989,1.465 -1.25,0.077 -2.507,0.029 -3.761,0.024 -1.621,-0.006 -3.271,-0.219 -4.52,1.245 -0.376,0.441 -1.069,0.264 -1.625,0.27 -1.461,0.017 -2.923,0.006 -4.86,0.006 6.385,2.485 12.532,2.394 18.718,1.863 0.574,-0.049 1.135,-0.246 1.22,-0.947 0.061,-0.502 0.088,-1.052 -0.518,-1.269 -1.193,-0.43 -0.506,-1.621 -0.979,-2.42 -0.795,-1.344 1.016,-1.09 1.432,-1.681 0.47,-0.668 1.873,-0.556 1.54,-1.938 -0.157,-0.652 0.609,-0.322 0.918,-0.325 3.636,-0.03 7.274,-0.077 10.909,0.01 1.451,0.034 2.567,-0.226 3.219,-1.642 0.206,-0.449 0.617,-0.8 0.843,-1.242 C 0.661,11.106 1.776,10.161 3.777,10.64 4.816,10.889 5.912,10.63 6.08,9.347 6.242,8.099 5.232,7.709 3.903,7.45 6.709,5.768 7.346,3.358 6.943,0.537 6.917,0.353 6.949,0.161 6.935,-0.026 6.796,-1.814 7.73,-4.201 6.531,-5.227 5.501,-6.107 3.189,-5.526 1.444,-5.528 -9.403,-5.54 -20.251,-5.501 -31.099,-5.57 c -1.579,-0.011 -2.056,0.427 -1.958,1.985 0.115,1.805 0.033,3.621 -0.15,5.439 -0.241,2.404 1.052,4.159 3.051,5.593" /></g><g
           transform="translate(86.9512,98.625)"
           id="g24"><path
             id="path26"
             style="fill:#1d1d1b;fill-opacity:1;fill-rule:nonzero;stroke:none"
             d="M 0,0 C 0.527,-2.129 1.563,-3.112 3.406,-3.623 1.59,-4.109 0.509,-5.071 0.052,-7.112 -0.434,-5.168 -1.382,-4.075 -3.449,-3.672 -1.571,-3.106 -0.385,-2.229 0,0" /></g><g
           transform="translate(105.8438,70.5918)"
           id="g28"><path
             id="path30"
             style="fill:#1d1d1b;fill-opacity:1;fill-rule:nonzero;stroke:none"
             d="M 0,0 C -0.479,2.112 -1.52,3.154 -3.408,3.644 -1.53,4.173 -0.407,5.111 -0.106,7.339 0.412,5.246 1.343,4.118 3.32,3.716 1.538,3.099 0.365,2.185 0,0" /></g><path
           id="path32"
           style="fill:#1d1d1b;fill-opacity:1;fill-rule:nonzero;stroke:none"
           d="m 68.556,63.228 h -7.524 v 3.865 h 7.524 z" /><path
           id="path34"
           style="fill:#1d1d1b;fill-opacity:1;fill-rule:nonzero;stroke:none"
           d="m 99.863,63.228 h -7.524 v 3.865 h 7.524 z" /></g></g><g
       id="g36"><g
         id="g38"><g
           id="g44"><g
             id="g46"><path
               id="path54"
               style="fill:url(#linearGradient52);stroke:none"
               d="M 9.801,79.924 C 9.801,40.448 41.917,8.332 81.393,8.332 v 0 c 39.476,0 71.593,32.116 71.593,71.592 v 0 c 0,39.476 -32.117,71.593 -71.593,71.593 v 0 C 41.917,151.517 9.801,119.4 9.801,79.924 m 4.954,0 c 0,36.745 29.893,66.639 66.638,66.639 v 0 c 36.745,0 66.639,-29.894 66.639,-66.639 v 0 c 0,-36.745 -29.894,-66.639 -66.639,-66.639 v 0 c -36.745,0 -66.638,29.894 -66.638,66.639" /></g></g></g></g><g
       id="g56"><g
         id="g58"><g
           id="g64"><g
             id="g66"><path
               id="path74"
               style="fill:url(#linearGradient72);stroke:none"
               d="m 19.571,79.924 c 0,-34.088 27.734,-61.82 61.822,-61.82 v 0 c 34.089,0 61.822,27.732 61.822,61.82 v 0 c 0,34.089 -27.733,61.821 -61.822,61.821 v 0 c -34.088,0 -61.822,-27.732 -61.822,-61.821 m 23.352,0 c 0,21.213 17.257,38.47 38.47,38.47 v 0 c 21.212,0 38.47,-17.257 38.47,-38.47 v 0 c 0,-21.212 -17.258,-38.47 -38.47,-38.47 v 0 c -21.213,0 -38.47,17.258 -38.47,38.47" /></g></g></g></g><g
       id="g76"><g
         clip-path="url(#clipPath82)"
         id="g78"><g
           transform="translate(77.165,75.9248)"
           id="g84"><path
             id="path86"
             style="fill:#ffffff;fill-opacity:1;fill-rule:nonzero;stroke:none"
             d="m 0,0 c -0.262,1.154 -0.83,1.724 -1.862,1.991 1.026,0.29 1.64,0.803 1.804,2.021 C 0.226,2.868 0.734,2.251 1.815,2.031 0.842,1.693 0.2,1.194 0,0" /></g><g
           transform="translate(86.4531,68.6182)"
           id="g88"><path
             id="path90"
             style="fill:#ffffff;fill-opacity:1;fill-rule:nonzero;stroke:none"
             d="m 0,0 c -0.262,1.155 -0.831,1.724 -1.863,1.992 1.026,0.289 1.64,0.802 1.804,2.02 C 0.226,2.868 0.733,2.251 1.815,2.031 0.841,1.694 0.199,1.194 0,0" /></g><g
           transform="translate(100.6934,86.585)"
           id="g92"><path
             id="path94"
             style="fill:#1d1d1b;fill-opacity:1;fill-rule:nonzero;stroke:none"
             d="m 0,0 c -0.262,1.155 -0.83,1.725 -1.863,1.992 1.026,0.289 1.641,0.802 1.805,2.02 C 0.226,2.868 0.734,2.251 1.815,2.031 0.842,1.694 0.2,1.194 0,0" /></g><g
           transform="translate(54.8359,65.4639)"
           id="g96"><path
             id="path98"
             style="fill:#1d1d1b;fill-opacity:1;fill-rule:nonzero;stroke:none"
             d="m 0,0 c -0.262,1.155 -0.83,1.725 -1.863,1.992 1.026,0.289 1.641,0.802 1.805,2.02 C 0.226,2.868 0.734,2.251 1.815,2.031 0.842,1.694 0.2,1.194 0,0" /></g><g
           transform="translate(189.999,87.8506)"
           id="g100"><path
             id="path102"
             style="fill:#1d1d1b;fill-opacity:1;fill-rule:nonzero;stroke:none"
             d="m 0,0 c 12.455,0 18.39,4.765 18.39,16.467 0,11.869 -6.102,16.55 -18.39,16.55 H -2.758 V 0 Z m -18.891,46.391 h 14.377 c 11.118,0 20.062,-0.167 27.919,-5.684 7.523,-5.267 11.534,-13.541 11.534,-24.24 0,-10.616 -4.011,-18.891 -11.534,-24.24 -7.439,-5.267 -15.715,-5.601 -25.662,-5.601 h -16.634 z" /></g><g
           transform="translate(265.5645,96.7939)"
           id="g104"><path
             id="path106"
             style="fill:#1d1d1b;fill-opacity:1;fill-rule:nonzero;stroke:none"
             d="m 0,0 -6.103,19.727 c -0.251,0.919 -0.918,3.594 -2.005,8.024 -1.087,-4.43 -1.839,-7.105 -2.09,-8.024 L -16.217,0 Z M -18.39,37.447 H 2.006 L 22.651,-22.317 H 6.436 l -3.009,10.699 h -23.155 l -3.092,-10.699 h -16.216 z" /></g><g
           transform="translate(293.9014,134.2412)"
           id="g108"><path
             id="path110"
             style="fill:#1d1d1b;fill-opacity:1;fill-rule:nonzero;stroke:none"
             d="m 0,0 h 15.715 l 22.568,-30.76 c 0.585,-0.753 2.508,-4.263 5.434,-10.532 -0.586,4.681 -0.92,8.609 -0.92,11.786 V 0 H 58.428 V -59.765 H 42.797 l -22.568,30.844 c -0.585,0.752 -2.508,4.18 -5.434,10.448 0.585,-4.68 0.92,-8.609 0.92,-11.786 V -59.765 H 0 Z" /></g><path
           id="path112"
           style="fill:#1d1d1b;fill-opacity:1;fill-rule:nonzero;stroke:none"
           d="m 365.538,134.241 h 16.467 V 74.476 h -16.467 z" /><g
           transform="translate(395.1289,134.2412)"
           id="g114"><path
             id="path116"
             style="fill:#1d1d1b;fill-opacity:1;fill-rule:nonzero;stroke:none"
             d="M 0,0 H 36.611 V -13.123 H 15.882 V -23.488 H 35.441 V -36.276 H 15.882 V -46.391 H 36.611 V -59.765 H 0 Z" /></g><g
           transform="translate(442.5234,134.2412)"
           id="g118"><path
             id="path120"
             style="fill:#1d1d1b;fill-opacity:1;fill-rule:nonzero;stroke:none"
             d="M 0,0 H 16.3 V -45.806 H 36.528 V -59.765 H 0 Z" /></g><g
           transform="translate(503.8779,85.5938)"
           id="g122"><path
             id="path124"
             style="fill:#1d1d1b;fill-opacity:1;fill-rule:nonzero;stroke:none"
             d="m 0,0 c 4.514,0 7.439,2.675 7.439,6.186 0,4.763 -3.259,6.185 -10.03,7.94 -10.783,2.842 -16.049,7.188 -16.049,16.55 0,11.117 8.108,19.392 20.646,19.392 6.687,0 12.538,-1.755 17.721,-5.349 L 14.628,33.017 c -3.762,3.176 -7.774,4.764 -11.451,4.764 -4.013,0 -6.604,-2.173 -6.604,-5.015 0,-4.263 4.096,-5.183 9.529,-6.603 10.616,-2.843 16.466,-6.771 16.466,-17.805 0,-12.454 -8.86,-21.064 -22.902,-21.064 -8.442,0 -14.795,2.675 -21.231,8.777 l 7.355,12.12 C -9.445,2.758 -4.765,0 0,0" /></g><g
           transform="translate(582.5361,86.6797)"
           id="g126"><path
             id="path128"
             style="fill:#1d1d1b;fill-opacity:1;fill-rule:nonzero;stroke:none"
             d="m 0,0 c 6.937,0 10.615,1.338 10.615,6.27 0,5.683 -3.343,6.77 -10.364,6.77 H -5.684 V 0 Z m -2.424,23.655 c 6.854,0 10.532,1.004 10.532,5.935 0,5.35 -3.678,6.102 -10.281,6.102 H -5.684 V 23.655 Z m -18.389,23.907 h 18.138 c 7.356,0 13.123,-0.084 17.637,-2.09 5.517,-2.424 8.442,-6.938 8.442,-12.872 0,-6.855 -3.259,-10.533 -10.866,-12.622 8.526,-0.668 13.541,-6.269 13.541,-15.129 0,-6.353 -2.758,-11.369 -7.773,-14.043 -5.35,-2.842 -12.454,-3.009 -22.235,-3.009 h -16.884 z" /></g><path
           id="path130"
           style="fill:#1d1d1b;fill-opacity:1;fill-rule:nonzero;stroke:none"
           d="m 618.814,134.241 h 16.467 V 74.476 h -16.467 z" /><g
           transform="translate(648.4043,134.2412)"
           id="g132"><path
             id="path134"
             style="fill:#1d1d1b;fill-opacity:1;fill-rule:nonzero;stroke:none"
             d="M 0,0 H 16.3 V -45.806 H 36.528 V -59.765 H 0 Z" /></g><g
           transform="translate(680.2529,134.2412)"
           id="g136"><path
             id="path138"
             style="fill:#1d1d1b;fill-opacity:1;fill-rule:nonzero;stroke:none"
             d="m 0,0 h 17.303 l 11.953,-33.435 c 0.25,-0.669 0.919,-3.343 2.006,-8.024 1.086,4.681 1.839,7.355 2.09,8.024 L 45.221,0 H 62.523 L 37.447,-59.765 H 25.076 Z" /></g><g
           transform="translate(769.8613,139.7578)"
           id="g140"><path
             id="path142"
             style="fill:#1d1d1b;fill-opacity:1;fill-rule:nonzero;stroke:none"
             d="M 0,0 C 2.508,0 4.598,2.006 4.598,4.43 4.598,6.938 2.508,9.028 0,9.028 -2.424,9.028 -4.514,6.938 -4.514,4.43 -4.514,2.006 -2.507,0 0,0 M 8.192,-42.964 2.09,-23.237 c -0.251,0.919 -0.919,3.594 -2.006,8.024 -1.087,-4.43 -1.839,-7.105 -2.09,-8.024 L -8.024,-42.964 Z M -9.779,-5.517 -3.26,-5.684 v 0.167 c -4.429,1.087 -7.439,5.267 -7.439,10.031 0,5.935 4.681,10.699 10.699,10.699 6.019,0 10.783,-4.848 10.783,-10.699 0,-4.681 -2.759,-8.526 -7.188,-10.031 v -0.167 l 6.268,0.167 20.981,-59.764 H 14.628 l -3.009,10.699 h -23.154 l -3.093,-10.699 h -16.216 z" /></g><g
           transform="translate(824.6953,105.9893)"
           id="g144"><path
             id="path146"
             style="fill:#1d1d1b;fill-opacity:1;fill-rule:nonzero;stroke:none"
             d="m 0,0 c 6.854,0 10.114,2.173 10.114,7.438 0,6.27 -3.093,8.276 -9.863,8.276 h -3.26 L -3.009,0 Z m -18.306,28.252 h 18.055 c 8.275,0 14.628,-0.084 19.727,-4.012 4.346,-3.344 6.687,-8.443 6.687,-14.628 0,-9.278 -4.681,-15.213 -13.374,-17.051 l 16.3,-24.074 H 10.699 L -3.009,-8.108 v -23.405 h -15.297 z" /></g><g
           transform="translate(878.8613,87.8506)"
           id="g148"><path
             id="path150"
             style="fill:#1d1d1b;fill-opacity:1;fill-rule:nonzero;stroke:none"
             d="m 0,0 c 12.455,0 18.39,4.765 18.39,16.467 0,11.869 -6.102,16.55 -18.39,16.55 H -2.758 V 0 Z m -18.891,46.391 h 14.377 c 11.118,0 20.062,-0.167 27.919,-5.684 C 30.928,35.44 34.94,27.166 34.94,16.467 34.94,5.851 30.928,-2.424 23.405,-7.773 15.966,-13.04 7.69,-13.374 -2.257,-13.374 h -16.634 z" /></g><g
           transform="translate(185.0166,49.1094)"
           id="g152"><path
             id="path154"
             style="fill:#1d1d1b;fill-opacity:1;fill-rule:nonzero;stroke:none"
             d="m 0,0 c 1.755,1.436 2.658,2.925 2.658,4.254 0,1.808 -1.276,3.084 -3.243,3.084 -2.181,0 -3.51,-1.276 -3.51,-3.35 0,-0.745 0.532,-2.18 1.383,-3.19 l 1.488,-1.809 z m -4.68,-8.615 c -2.287,-2.021 -3.457,-3.669 -3.457,-5.478 0,-2.179 1.702,-3.934 4.042,-3.934 1.755,0 3.51,0.904 5.531,2.712 z M 6.646,-20.474 c -3.668,-3.403 -7.498,-4.892 -12.443,-4.892 -6.859,0 -11.486,4.573 -11.486,10.583 0,4.945 2.818,8.295 8.828,11.486 -2.34,2.712 -3.51,5.265 -3.51,7.817 0,4.892 4.307,8.933 10.528,8.933 7.18,0 11.168,-3.828 11.168,-9.358 0,-3.67 -2.127,-6.807 -6.488,-9.573 l 4.467,-4.679 c 1.968,1.648 3.723,3.403 5.318,5.264 l 5.424,-5.584 c -1.702,-2.073 -3.457,-3.881 -5.212,-5.37 l 8.243,-8.508 H 9.997 Z" /></g><g
           transform="translate(239.0352,31.8262)"
           id="g156"><path
             id="path158"
             style="fill:#1d1d1b;fill-opacity:1;fill-rule:nonzero;stroke:none"
             d="m 0,0 c 2.871,0 4.732,1.702 4.732,3.936 0,3.031 -2.073,3.934 -6.38,5.051 -6.861,1.808 -10.21,4.574 -10.21,10.53 0,7.072 5.158,12.337 13.134,12.337 4.254,0 7.977,-1.118 11.274,-3.404 L 9.306,21.005 c -2.393,2.021 -4.946,3.031 -7.285,3.031 -2.553,0 -4.202,-1.382 -4.202,-3.19 0,-2.712 2.607,-3.297 6.063,-4.201 6.754,-1.808 10.475,-4.307 10.475,-11.327 0,-7.923 -5.636,-13.401 -14.57,-13.401 -5.371,0 -9.412,1.702 -13.507,5.584 l 4.68,7.711 C -6.009,1.755 -3.031,0 0,0" /></g><g
           transform="translate(259.1836,62.7754)"
           id="g160"><path
             id="path162"
             style="fill:#1d1d1b;fill-opacity:1;fill-rule:nonzero;stroke:none"
             d="M 0,0 H 23.292 V -8.349 H 10.104 v -6.593 h 12.444 v -8.137 H 10.104 v -6.434 h 13.188 v -8.508 H 0 Z" /></g><g
           transform="translate(300.9766,44.8018)"
           id="g164"><path
             id="path166"
             style="fill:#1d1d1b;fill-opacity:1;fill-rule:nonzero;stroke:none"
             d="m 0,0 c 4.36,0 6.435,1.383 6.435,4.732 0,3.989 -1.968,5.265 -6.276,5.265 H -1.915 V 0 Z M -11.646,17.974 H -0.16 c 5.264,0 9.306,-0.053 12.55,-2.553 2.765,-2.127 4.254,-5.37 4.254,-9.306 0,-5.902 -2.978,-9.678 -8.508,-10.847 L 18.505,-20.048 H 6.807 l -8.722,14.89 v -14.89 h -9.731 z" /></g><g
           transform="translate(318.3594,62.7754)"
           id="g168"><path
             id="path170"
             style="fill:#1d1d1b;fill-opacity:1;fill-rule:nonzero;stroke:none"
             d="m 0,0 h 11.008 l 7.604,-21.271 c 0.159,-0.425 0.585,-2.126 1.277,-5.105 0.691,2.979 1.17,4.68 1.329,5.105 L 28.77,0 H 39.776 L 23.823,-38.021 h -7.87 z" /></g><path
           id="path172"
           style="fill:#1d1d1b;fill-opacity:1;fill-rule:nonzero;stroke:none"
           d="m 361.481,62.775 h 10.476 V 24.754 h -10.476 z" /><g
           transform="translate(407.8486,49.96)"
           id="g174"><path
             id="path176"
             style="fill:#1d1d1b;fill-opacity:1;fill-rule:nonzero;stroke:none"
             d="m 0,0 c -2.765,3.084 -5.424,4.573 -8.774,4.573 -6.009,0 -9.997,-4.573 -9.997,-11.008 0,-5.849 3.935,-10.582 9.997,-10.582 3.35,0 6.009,1.489 8.774,4.574 v -11.328 c -3.297,-1.594 -6.435,-2.392 -9.838,-2.392 -11.22,0 -19.303,8.455 -19.303,19.941 0,11.487 8.083,19.942 19.303,19.942 3.403,0 6.541,-0.798 9.838,-2.393 z" /></g><g
           transform="translate(413.6924,62.7754)"
           id="g178"><path
             id="path180"
             style="fill:#1d1d1b;fill-opacity:1;fill-rule:nonzero;stroke:none"
             d="M 0,0 H 23.292 V -8.349 H 10.104 v -6.593 h 12.444 v -8.137 H 10.104 v -6.434 h 13.188 v -8.508 H 0 Z" /></g></g></g></g></svg>